<svg xmlns="http://www.w3.org/2000/svg" aria-hidden="true" style="position:absolute;width:0;height:0;overflow:hidden">
  <defs>
    <symbol id="icon-arrow-down" viewBox="0 0 32 32">
      <path fill="#dbf784" d="M16 0c8.837 0 16 7.163 16 16s-7.163 16-16 16S0 24.837 0 16 7.163 0 16 0z" style="fill:var(--color1, #dbf784)"/>
      <path fill="none" stroke="#1e2013" stroke-linecap="round" stroke-linejoin="round" stroke-width="2" d="M16 6.667v18.667m0-.001L10.667 20M16 25.333 21.333 20" style="stroke:var(--color2, #1e2013)"/>
    </symbol>
    <symbol id="icon-arrow-up" viewBox="0 0 32 32">
      <path fill="#dbf784" d="M16 0c8.837 0 16 7.163 16 16s-7.163 16-16 16S0 24.837 0 16 7.163 0 16 0z" style="fill:var(--color1, #dbf784)"/>
      <path fill="none" stroke="#1e2013" stroke-linecap="round" stroke-linejoin="round" stroke-width="2" d="M16 25.333V6.666m0 .001L10.667 12M16 6.667 21.333 12" style="stroke:var(--color2, #1e2013)"/>
    </symbol>
    <symbol id="icon-ellipse" viewBox="0 0 32 32">
      <path fill="#dbf784" d="M16 0c8.837 0 16 7.163 16 16s-7.163 16-16 16S0 24.837 0 16 7.163 0 16 0z" style="fill:var(--color1, #dbf784)"/>
      <path fill="#4f5144" d="M14.913 4.077c.232.127.38.373.38.649v6.184a.734.734 0 0 1-.281.579l-2.027 1.568c.953.663 2.308 1.601 2.308 2.943 0 1.42-1.235 2.421-2.343 3.043l2.04 1.448c.191.14.303.36.303.6v6.184a.74.74 0 0 1-.374.641.688.688 0 0 1-.726-.042l-7.767-5.451a3.913 3.913 0 0 1-1.723-3.148c0-.896.395-1.976 1.715-3.248-1.009-.86-1.715-1.905-1.715-3.303 0-1.673 1.941-3.107 3.133-3.876l6.333-4.708a.716.716 0 0 1 .741-.064zm-7.214 6.658c-.516.423-1.581 1.221-1.581 1.991 0 1.072.649 1.736 1.412 2.364l2.117-1.391 1.412.848-2.344 1.447 2.908 2.096c.777-.331 2.26-1.059 2.26-2.089 0-1.093-1.737-1.771-2.507-2.301-1.221-.847-2.887-1.637-3.671-2.964h-.007zm-.142 6.19c-1.285 1.172-1.44 1.955-1.44 2.351 0 .515.261 1.363 1.093 1.941h.008l.6.424a3.94 3.94 0 0 1 2.258-2.309l1.044 1.031c-.847.381-1.721 1.151-1.884 1.519a1.414 1.414 0 0 0-.127.663l4.772 3.353v-4.427a783.787 783.787 0 0 1-6.325-4.547zm1.299-7.04c.48 1.031 1.997 1.709 2.887 2.316l2.14-1.659V6.153l-5.027 3.74v-.008zm8.224-5.802a.693.693 0 0 1 .72.036l7.413 5.096c1.235.84 2.081 1.935 2.081 3.509 0 1.292-.812 2.379-1.693 3.219.776.635 1.693 1.693 1.693 3.332 0 2.047-1.489 3.028-2.471 3.671l-.317.205a886.81 886.81 0 0 0-6.693 4.723.688.688 0 0 1-.726.042.737.737 0 0 1-.381-.641v-6.184c0-.227.107-.445.283-.579l1.984-1.533c-1.101-.684-2.267-1.467-2.267-2.979 0-1.327 1.363-2.357 2.295-3.056l-1.991-1.44a.736.736 0 0 1-.304-.593V4.728a.707.707 0 0 1 .375-.635v-.009zm3.148 9.742c-.543.395-2.111 1.327-2.111 2.173 0 1.173 1.723 1.821 2.479 2.288l.027.013c1.328.911 2.987 1.688 3.856 3.128.819-.573 1.404-1.108 1.404-2.153 0-1.151-.727-1.877-1.397-2.379l-2.132 1.652-1.412-.728 2.329-1.8-3.043-2.195zm4.2 1.256-6.311-4.553V6.083L22.67 9.21c.741.508-1.44 2.188-1.729 2.428l1.412.728c.791-.657 1.384-1.101 1.744-2.175l.339.233c.827.564 1.447 1.221 1.447 2.301 0 .96-.804 1.764-1.453 2.357zM23.3 22.233c-.635-1.129-2.027-1.736-3.035-2.435l-2.147 1.659v4.427l5.189-3.651h-.008z" style="fill:var(--color3, #4f5144)"/>
    </symbol>
    <symbol id="icon-logo" viewBox="0 0 32 32">
      <path fill="#4f5144" d="M5.465 8.727c.846 0 1.661.083 2.444.248.795.165 1.461.375 2 .63l-.461 2.92h-.52c-.244-.776-.5-1.393-.769-1.851A2.617 2.617 0 0 0 7.1 9.624c-.449-.254-1.045-.381-1.789-.381-1.693 0-2.54.547-2.54 1.641 0 .445.103.814.308 1.107s.513.56.924.801c.41.229 1.091.572 2.04 1.03l.384.172c1.193.572 2.071 1.038 2.636 1.394a4.13 4.13 0 0 1 1.366 1.336c.334.522.5 1.202.5 2.042 0 1.247-.475 2.189-1.424 2.825-.936.636-2.411.955-4.425.955-.259 0-.527-.013-.804-.031v-.521c.222.024.458.036.708.036.834 0 1.482-.159 1.944-.477s.692-.776.692-1.374c0-.483-.109-.884-.327-1.202-.205-.318-.526-.611-.962-.878s-1.077-.585-1.924-.954c-1.077-.471-1.911-.885-2.501-1.242a4.376 4.376 0 0 1-1.405-1.374c-.333-.56-.5-1.266-.5-2.119 0-1.221.436-2.137 1.308-2.748.872-.623 2.258-.935 4.157-.935zM15.795 17.449l3.54-8.493h5.079v.382l-.712.152c-.192.038-.32.083-.384.134-.051.051-.077.147-.077.287v11.451c0 .14.026.235.077.286.064.051.192.095.384.134l.712.153v.381H18.18v-.381l.693-.153c.18-.038.295-.076.347-.114.064-.051.096-.147.096-.287V10.579l-4.887 11.737h-.577l-3.17-6.912V8.956h1.15l3.964 8.493zM25.099 8.958c1.598.014 2.886.14 3.861.379 1.039.242 1.802.655 2.289 1.24.5.573.751 1.375.751 2.405s-.25 1.839-.751 2.424c-.487.572-1.251.986-2.289 1.241-.976.227-2.263.345-3.861.359v-.573c.689-.014 1.233-.126 1.63-.341.436-.229.75-.591.943-1.087s.288-1.171.288-2.023c0-.852-.096-1.527-.288-2.023s-.507-.859-.943-1.088c-.397-.215-.94-.327-1.63-.341v-.573z" style="fill:var(--color3, #4f5144)"/>
    </symbol>
    <symbol id="icon-menu" viewBox="0 0 32 32">
      <path stroke-linecap="round" stroke-width="1.454" d="M24.727 21.818H7.272M24.727 16H7.272M24.727 10.182H7.272"/>
    </symbol>
  </defs>
</svg>
